<svg version="1.1" id="Layer_1" xmlns="http://www.w3.org/2000/svg" xmlns:xlink="http://www.w3.org/1999/xlink" x="0px" y="0px"
	 width="100%" viewBox="0 0 290 355" enable-background="new 0 0 290 355" xml:space="preserve">
<path fill="#000000" opacity="1.000000" stroke="none" 
	d="
M226.909409,264.946198 
	C226.909409,264.946198 226.935196,264.857727 227.620865,264.742706 
	C229.872482,262.897400 232.124100,261.052094 234.951660,258.873077 
	C237.684326,255.694046 240.417007,252.515015 243.848740,249.263474 
	C245.512329,247.502563 247.175903,245.741653 249.319138,243.715164 
	C249.415970,243.560165 249.512802,243.405182 250.099030,242.939072 
	C250.457626,242.070465 250.816223,241.201859 251.663559,240.062210 
	C251.758789,239.902100 251.854004,239.741974 252.408340,239.152802 
	C253.005264,237.796646 253.602188,236.440475 254.726242,234.585342 
	C258.629608,226.683197 257.402618,218.447754 256.053528,210.293503 
	C255.637024,207.776108 254.683258,204.969788 253.055817,203.093445 
	C244.175659,192.855103 234.162659,183.929245 222.591415,176.670334 
	C214.310455,171.475494 209.760651,166.356415 214.579147,156.220734 
	C215.827988,153.593781 215.888733,150.423462 216.975235,147.693802 
	C220.135010,139.755447 216.838074,136.465775 209.878220,132.709946 
	C207.384720,131.364349 204.152008,130.947754 201.241989,130.893372 
	C190.340439,130.689575 179.400650,130.306168 168.539413,130.998093 
	C161.936752,131.418716 155.451843,133.687683 148.103149,134.971420 
	C143.196533,133.942520 138.256546,133.050095 133.389542,131.859283 
	C118.449539,128.203888 103.932465,129.044540 90.043930,135.945236 
	C86.064171,137.922638 81.207390,139.631943 78.770142,142.947250 
	C70.081123,154.766663 59.455044,165.468613 55.194572,180.118713 
	C52.854439,188.165543 49.379868,196.081497 48.429306,204.289505 
	C46.756027,218.738235 50.428963,232.649124 58.571575,244.633987 
	C66.872360,256.851624 78.260612,266.268036 90.498611,274.517456 
	C93.512932,276.549347 96.702148,278.345123 99.913040,280.058044 
	C113.020462,287.050537 126.167450,293.968811 139.545517,301.200348 
	C139.904846,301.147278 140.264160,301.094238 141.283218,301.607605 
	C141.840393,301.751923 142.397568,301.896240 143.368500,302.600555 
	C146.228409,303.776703 149.088318,304.952820 152.271439,306.760040 
	C153.828598,307.239868 155.385773,307.719666 157.304260,308.756744 
	C159.541443,309.770111 161.778610,310.783478 164.632095,312.275970 
	C168.088043,312.849854 171.543991,313.423737 175.561966,314.216888 
	C180.843735,313.577637 184.247147,310.385193 187.216919,305.432831 
	C188.118088,303.284393 189.019241,301.135956 190.356384,298.466248 
	C192.143570,295.304443 193.930756,292.142609 195.987915,288.350403 
	C196.459045,287.607727 196.930191,286.865051 197.878281,285.669250 
	C201.217514,281.392548 201.899628,274.627502 209.539902,273.943024 
	C209.822845,273.691589 210.105774,273.440125 210.934387,273.236633 
	C211.288864,273.156250 211.643326,273.075867 212.557678,273.196747 
	C215.029953,272.126770 217.502213,271.056763 220.619843,269.833008 
	C221.735626,269.192108 222.851425,268.551178 224.577026,267.765839 
	C225.325485,266.815796 226.073944,265.865784 226.909409,264.946198 
z"/>
<path fill="#BF6BEB" opacity="1.000000" stroke="none" 
	d="
M156.942947,308.199463 
	C155.385773,307.719666 153.828598,307.239868 152.167877,306.105591 
	C151.844498,304.156219 151.624680,302.861267 151.404846,301.566345 
	C148.634979,302.559082 145.570419,298.300476 142.954742,302.040527 
	C142.397568,301.896240 141.840393,301.751923 140.792389,301.279572 
	C139.967667,300.939148 139.633774,300.926788 139.299866,300.914398 
	C126.167450,293.968811 113.020462,287.050537 99.913040,280.058044 
	C96.702148,278.345123 93.512932,276.549347 90.498611,274.517456 
	C78.260612,266.268036 66.872360,256.851624 58.571575,244.633987 
	C50.428963,232.649124 46.756027,218.738235 48.429306,204.289505 
	C49.379868,196.081497 52.854439,188.165543 55.194572,180.118713 
	C59.455044,165.468613 70.081123,154.766663 78.770142,142.947250 
	C81.207390,139.631943 86.064171,137.922638 90.043930,135.945236 
	C103.932465,129.044540 118.449539,128.203888 133.389542,131.859283 
	C138.256546,133.050095 143.196533,133.942520 148.620911,135.376160 
	C150.948944,136.872147 152.688202,138.110672 154.583969,139.024567 
	C158.775909,141.045349 163.386444,142.388901 167.220520,144.924576 
	C178.150665,152.153290 189.062714,159.469360 199.446472,167.447876 
	C210.508514,175.947571 217.480835,187.493851 219.923874,201.258942 
	C224.431198,226.654861 214.193970,248.850021 203.641556,271.056793 
	C200.295288,275.664154 197.294891,280.189819 194.005859,285.150909 
	C195.604355,285.608246 196.502823,285.865295 197.401306,286.122345 
	C196.930191,286.865051 196.459045,287.607727 195.533905,288.596344 
	C193.566360,289.579315 190.921280,290.125214 190.758270,291.090363 
	C190.324463,293.658783 185.487091,295.980865 189.920410,298.987488 
	C189.019241,301.135956 188.118088,303.284393 186.595032,305.705078 
	C180.618484,306.329071 176.723511,308.677917 174.999939,313.997620 
	C171.543991,313.423737 168.088043,312.849854 164.318085,311.659912 
	C162.913544,309.444489 162.033783,307.591919 160.603241,306.400970 
	C160.177399,306.046417 158.206116,307.548248 156.942947,308.199463 
M176.738815,296.632904 
	C181.875916,287.539093 187.626251,278.729248 192.000900,269.282379 
	C197.993591,256.341431 204.121033,243.256027 208.045258,229.615326 
	C213.191116,211.728302 210.658646,194.328629 196.883636,180.443039 
	C176.428543,159.823700 151.740631,146.959061 122.108841,141.927795 
	C113.208366,141.744003 104.534607,142.383652 96.620361,147.228745 
	C81.640099,156.399658 72.388641,170.310791 65.591461,185.819534 
	C56.310699,206.994873 57.747616,226.987717 73.233147,245.523407 
	C80.858932,254.651215 90.201538,261.432007 99.743523,267.824677 
	C119.678360,281.180084 141.610519,290.912262 163.636230,300.287018 
	C168.252075,302.251617 172.812210,301.188019 176.738815,296.632904 
z"/>
<path fill="#9940D3" opacity="1.000000" stroke="none" 
	d="
M203.987442,270.975128 
	C214.193970,248.850021 224.431198,226.654861 219.923874,201.258942 
	C217.480835,187.493851 210.508514,175.947571 199.446472,167.447876 
	C189.062714,159.469360 178.150665,152.153290 167.220520,144.924576 
	C163.386444,142.388901 158.775909,141.045349 154.583969,139.024567 
	C152.688202,138.110672 150.948944,136.872147 149.026367,135.453613 
	C155.451843,133.687683 161.936752,131.418716 168.539413,130.998093 
	C179.400650,130.306168 190.340439,130.689575 201.241989,130.893372 
	C204.152008,130.947754 207.384720,131.364349 209.878220,132.709946 
	C216.838074,136.465775 220.135010,139.755447 216.975235,147.693802 
	C215.888733,150.423462 215.827988,153.593781 214.579147,156.220734 
	C209.760651,166.356415 214.310455,171.475494 222.591415,176.670334 
	C234.162659,183.929245 244.175659,192.855103 253.055817,203.093445 
	C254.683258,204.969788 255.637024,207.776108 256.053528,210.293503 
	C257.402618,218.447754 258.629608,226.683197 254.130478,234.775101 
	C252.525497,234.892151 251.516296,234.819443 250.152710,234.721207 
	C250.874634,236.674454 251.411926,238.128159 251.949234,239.581863 
	C251.854004,239.741974 251.758789,239.902100 251.167877,239.943802 
	C249.654343,239.854446 248.636475,239.883514 247.618607,239.912567 
	C248.282288,241.025116 248.945953,242.137665 249.609619,243.250214 
	C249.512802,243.405182 249.415970,243.560165 248.678223,243.847137 
	C244.153137,243.707306 242.588867,245.552185 243.149689,249.335983 
	C240.417007,252.515015 237.684326,255.694046 234.336121,258.894531 
	C228.890274,257.963348 227.083832,260.463959 226.935196,264.857727 
	C226.935196,264.857727 226.909409,264.946198 226.525909,264.954315 
	C225.417343,265.945038 224.692261,266.927643 223.967194,267.910278 
	C222.851425,268.551178 221.735626,269.192108 220.079895,269.665283 
	C218.589539,268.804840 216.934647,267.392761 216.795746,267.528778 
	C215.068420,269.220306 213.561432,271.136810 211.997803,272.995483 
	C211.643326,273.075867 211.288864,273.156250 210.307388,273.153320 
	C209.442520,273.048187 209.204666,273.026367 208.614471,273.009125 
	C206.837250,272.334137 205.412354,271.654633 203.987442,270.975128 
z"/>
<path fill="#B86EDD" opacity="1.000000" stroke="none" 
	d="
M203.641556,271.056793 
	C205.412354,271.654633 206.837250,272.334137 208.619446,273.216949 
	C208.976730,273.420227 208.960220,273.835846 208.960220,273.835846 
	C201.899628,274.627502 201.217514,281.392548 197.639801,285.895813 
	C196.502823,285.865295 195.604355,285.608246 194.005859,285.150909 
	C197.294891,280.189819 200.295288,275.664154 203.641556,271.056793 
z"/>
<path fill="#B76BD8" opacity="1.000000" stroke="none" 
	d="
M175.280945,314.107239 
	C176.723511,308.677917 180.618484,306.329071 186.365753,305.978638 
	C184.247147,310.385193 180.843735,313.577637 175.280945,314.107239 
z"/>
<path fill="#B46BDA" opacity="1.000000" stroke="none" 
	d="
M190.138397,298.726868 
	C185.487091,295.980865 190.324463,293.658783 190.758270,291.090363 
	C190.921280,290.125214 193.566360,289.579315 195.398911,288.911560 
	C193.930756,292.142609 192.143570,295.304443 190.138397,298.726868 
z"/>
<path fill="#B869DE" opacity="1.000000" stroke="none" 
	d="
M143.161621,302.320557 
	C145.570419,298.300476 148.634979,302.559082 151.404846,301.566345 
	C151.624680,302.861267 151.844498,304.156219 152.006271,305.790039 
	C149.088318,304.952820 146.228409,303.776703 143.161621,302.320557 
z"/>
<path fill="#8B3DBD" opacity="1.000000" stroke="none" 
	d="
M212.277740,273.096130 
	C213.561432,271.136810 215.068420,269.220306 216.795746,267.528778 
	C216.934647,267.392761 218.589539,268.804840 219.757217,269.742126 
	C217.502213,271.056763 215.029953,272.126770 212.277740,273.096130 
z"/>
<path fill="#8B3EBC" opacity="1.000000" stroke="none" 
	d="
M227.278030,264.800232 
	C227.083832,260.463959 228.890274,257.963348 234.048157,259.061371 
	C232.124100,261.052094 229.872482,262.897400 227.278030,264.800232 
z"/>
<path fill="#B16AD9" opacity="1.000000" stroke="none" 
	d="
M157.123596,308.478088 
	C158.206116,307.548248 160.177399,306.046417 160.603241,306.400970 
	C162.033783,307.591919 162.913544,309.444489 164.009949,311.420349 
	C161.778610,310.783478 159.541443,309.770111 157.123596,308.478088 
z"/>
<path fill="#8D3FC2" opacity="1.000000" stroke="none" 
	d="
M243.499207,249.299728 
	C242.588867,245.552185 244.153137,243.707306 248.438400,243.979919 
	C247.175903,245.741653 245.512329,247.502563 243.499207,249.299728 
z"/>
<path fill="#8D3FC2" opacity="1.000000" stroke="none" 
	d="
M249.854324,243.094635 
	C248.945953,242.137665 248.282288,241.025116 247.618607,239.912567 
	C248.636475,239.883514 249.654343,239.854446 250.923523,240.079315 
	C250.816223,241.201859 250.457626,242.070465 249.854324,243.094635 
z"/>
<path fill="#8D3FC2" opacity="1.000000" stroke="none" 
	d="
M252.178787,239.367340 
	C251.411926,238.128159 250.874634,236.674454 250.152710,234.721207 
	C251.516296,234.819443 252.525497,234.892151 253.866913,235.024582 
	C253.602188,236.440475 253.005264,237.796646 252.178787,239.367340 
z"/>
<path fill="#8B3EBC" opacity="1.000000" stroke="none" 
	d="
M224.272110,267.838074 
	C224.692261,266.927643 225.417343,265.945038 226.482422,264.939087 
	C226.073944,265.865784 225.325485,266.815796 224.272110,267.838074 
z"/>
<path fill="#B869DE" opacity="1.000000" stroke="none" 
	d="
M139.422699,301.057373 
	C139.633774,300.926788 139.967667,300.939148 140.462524,300.996368 
	C140.264160,301.094238 139.904846,301.147278 139.422699,301.057373 
z"/>
<path fill="#8B3DBD" opacity="1.000000" stroke="none" 
	d="
M209.250061,273.889435 
	C208.960220,273.835846 208.976730,273.420227 208.971771,273.212402 
	C209.204666,273.026367 209.442520,273.048187 210.034546,273.129364 
	C210.105774,273.440125 209.822845,273.691589 209.250061,273.889435 
z"/>
<path fill="#9A40D4" opacity="1.000000" stroke="none" 
	d="
M123.042648,141.977753 
	C151.740631,146.959061 176.428543,159.823700 196.883636,180.443039 
	C210.658646,194.328629 213.191116,211.728302 208.045258,229.615326 
	C204.121033,243.256027 197.993591,256.341431 192.000900,269.282379 
	C187.626251,278.729248 181.875916,287.539093 176.129135,296.688049 
	C170.738525,294.406158 166.022583,291.923401 161.165604,289.756836 
	C137.705826,279.291962 115.064293,267.506744 96.324722,249.481750 
	C87.513496,241.006516 80.632233,231.212112 79.099380,218.761078 
	C77.115868,202.649490 80.741898,187.576675 89.613609,174.008072 
	C95.405075,165.150467 100.881439,155.896912 110.360870,150.156616 
	C114.661873,147.552124 118.819817,144.711349 123.042648,141.977753 
M173.877792,190.712006 
	C164.464081,171.946838 144.292252,164.898560 127.316246,170.064804 
	C113.557076,174.252090 103.596153,183.096924 99.732414,197.664200 
	C94.955467,215.674438 98.571411,235.063522 115.982468,246.466461 
	C135.452393,259.217834 166.294754,253.734650 176.237213,228.541748 
	C181.215393,215.927689 180.167419,203.478760 173.877792,190.712006 
z"/>
<path fill="#611E9A" opacity="1.000000" stroke="none" 
	d="
M122.575745,141.952774 
	C118.819817,144.711349 114.661873,147.552124 110.360870,150.156616 
	C100.881439,155.896912 95.405075,165.150467 89.613609,174.008072 
	C80.741898,187.576675 77.115868,202.649490 79.099380,218.761078 
	C80.632233,231.212112 87.513496,241.006516 96.324722,249.481750 
	C115.064293,267.506744 137.705826,279.291962 161.165604,289.756836 
	C166.022583,291.923401 170.738525,294.406158 175.860657,296.882202 
	C172.812210,301.188019 168.252075,302.251617 163.636230,300.287018 
	C141.610519,290.912262 119.678360,281.180084 99.743523,267.824677 
	C90.201538,261.432007 80.858932,254.651215 73.233147,245.523407 
	C57.747616,226.987717 56.310699,206.994873 65.591461,185.819534 
	C72.388641,170.310791 81.640099,156.399658 96.620361,147.228745 
	C104.534607,142.383652 113.208366,141.744003 122.575745,141.952774 
z"/>
<path fill="#C26CEE" opacity="1.000000" stroke="none" 
	d="
M174.047791,191.044373 
	C180.167419,203.478760 181.215393,215.927689 176.237213,228.541748 
	C166.294754,253.734650 135.452393,259.217834 115.982468,246.466461 
	C98.571411,235.063522 94.955467,215.674438 99.732414,197.664200 
	C103.596153,183.096924 113.557076,174.252090 127.316246,170.064804 
	C144.292252,164.898560 164.464081,171.946838 174.047791,191.044373 
M110.753906,190.707321 
	C101.184799,203.667465 101.210892,214.527115 110.907608,226.898163 
	C116.095650,237.405533 129.678497,243.720978 143.172546,241.899979 
	C158.649338,239.811417 167.578659,227.170059 165.388596,211.971497 
	C163.400085,198.171783 156.114243,188.037872 144.940399,180.929581 
	C132.391830,172.946762 118.783348,176.789261 110.753906,190.707321 
z"/>
<path fill="#601D99" opacity="1.000000" stroke="none" 
	d="
M110.839203,226.208481 
	C101.210892,214.527115 101.184799,203.667465 111.289810,190.344940 
	C123.670547,180.969559 141.202194,183.805527 147.009216,198.122177 
	C152.936920,212.736404 147.142151,233.205414 125.490929,231.796967 
	C120.506927,231.472763 115.717934,228.150864 110.839203,226.208481 
z"/>
<path fill="#9942D2" opacity="1.000000" stroke="none" 
	d="
M110.873405,226.553314 
	C115.717934,228.150864 120.506927,231.472763 125.490929,231.796967 
	C147.142151,233.205414 152.936920,212.736404 147.009216,198.122177 
	C141.202194,183.805527 123.670547,180.969559 111.488754,190.071106 
	C118.783348,176.789261 132.391830,172.946762 144.940399,180.929581 
	C156.114243,188.037872 163.400085,198.171783 165.388596,211.971497 
	C167.578659,227.170059 158.649338,239.811417 143.172546,241.899979 
	C129.678497,243.720978 116.095650,237.405533 110.873405,226.553314 
z"/>
</svg>
